<svg width="900" height="280" viewBox="0 0 900 280" fill="none" xmlns="http://www.w3.org/2000/svg">
  <rect width="900" height="280" rx="24" fill="#F8FAFC"/>
  <rect width="900" height="280" rx="24" fill="url(#paint0_linear)"/>
  <rect x="50" y="44" width="800" height="192" rx="24" fill="#FFFFFF" fill-opacity="0.84"/>
  <rect x="90" y="88" width="210" height="116" rx="20" fill="#F0FDFA"/>
  <rect x="122" y="70" width="148" height="42" rx="21" fill="#0EA5A4"/>
  <rect x="144" y="100" width="24" height="24" rx="6" fill="#CCFBF1"/>
  <rect x="178" y="100" width="24" height="24" rx="6" fill="#CCFBF1"/>
  <rect x="212" y="100" width="24" height="24" rx="6" fill="#CCFBF1"/>
  <rect x="144" y="136" width="24" height="24" rx="6" fill="#CCFBF1"/>
  <rect x="178" y="136" width="24" height="24" rx="6" fill="#CCFBF1"/>
  <rect x="212" y="136" width="24" height="24" rx="6" fill="#CCFBF1"/>
  <rect x="168" y="170" width="44" height="34" rx="10" fill="#99F6E4"/>
  <rect x="330" y="76" width="220" height="132" rx="20" fill="#ECFEFF"/>
  <rect x="356" y="100" width="168" height="14" rx="7" fill="#A5F3FC"/>
  <rect x="356" y="130" width="154" height="12" rx="6" fill="#CFFAFE"/>
  <rect x="356" y="154" width="144" height="12" rx="6" fill="#CFFAFE"/>
  <rect x="356" y="178" width="102" height="12" rx="6" fill="#CFFAFE"/>
  <rect x="584" y="76" width="218" height="132" rx="20" fill="#F8FAFC"/>
  <rect x="608" y="100" width="170" height="84" rx="16" fill="#E2E8F0"/>
  <rect x="628" y="120" width="48" height="44" rx="10" fill="#FFFFFF"/>
  <rect x="688" y="120" width="72" height="14" rx="7" fill="#CBD5E1"/>
  <rect x="688" y="146" width="56" height="12" rx="6" fill="#CBD5E1"/>
  <circle cx="138" cy="212" r="20" fill="#CCFBF1"/>
  <circle cx="760" cy="72" r="18" fill="#CCFBF1"/>
  <rect x="106" y="224" width="164" height="8" rx="4" fill="#D6F5F1"/>
  <rect x="350" y="224" width="148" height="8" rx="4" fill="#D6F5F1"/>
  <rect x="622" y="224" width="128" height="8" rx="4" fill="#D6F5F1"/>
  <defs>
    <linearGradient id="paint0_linear" x1="38" y1="24" x2="863" y2="256" gradientUnits="userSpaceOnUse">
      <stop stop-color="#F0FDFA"/>
      <stop offset="1" stop-color="#E0F2FE"/>
    </linearGradient>
  </defs>
</svg>
