<svg width="900" height="280" viewBox="0 0 900 280" fill="none" xmlns="http://www.w3.org/2000/svg">
  <rect width="900" height="280" rx="24" fill="#F8FAFC"/>
  <rect x="0" y="0" width="900" height="280" rx="24" fill="url(#paint0_linear)"/>
  <rect x="36" y="34" width="828" height="212" rx="24" fill="#FFFFFF" fill-opacity="0.82"/>
  <rect x="70" y="66" width="260" height="148" rx="20" fill="#E6FFFB"/>
  <rect x="92" y="90" width="102" height="102" rx="18" fill="#0EA5A4" fill-opacity="0.14"/>
  <path d="M133 116C141.284 116 148 109.284 148 101C148 92.7157 141.284 86 133 86C124.716 86 118 92.7157 118 101C118 109.284 124.716 116 133 116Z" fill="#0EA5A4"/>
  <path d="M108 178C108 159.222 123.222 144 142 144H170C188.778 144 204 159.222 204 178V192H108V178Z" fill="#14B8A6"/>
  <rect x="218" y="96" width="82" height="14" rx="7" fill="#99F6E4"/>
  <rect x="218" y="124" width="74" height="12" rx="6" fill="#CCFBF1"/>
  <rect x="218" y="148" width="58" height="12" rx="6" fill="#CCFBF1"/>
  <rect x="218" y="178" width="62" height="18" rx="9" fill="#0EA5A4"/>
  <rect x="368" y="66" width="218" height="148" rx="20" fill="#F0FDFA"/>
  <rect x="392" y="96" width="170" height="92" rx="18" fill="#DFF7F5"/>
  <path d="M423 172L458 132L488 158L523 116L556 172H423Z" fill="#0EA5A4" fill-opacity="0.24"/>
  <circle cx="444" cy="118" r="14" fill="#14B8A6" fill-opacity="0.6"/>
  <rect x="620" y="66" width="210" height="148" rx="20" fill="#ECFEFF"/>
  <rect x="646" y="92" width="66" height="94" rx="18" fill="#FFFFFF"/>
  <rect x="726" y="92" width="78" height="44" rx="14" fill="#CFFAFE"/>
  <rect x="726" y="146" width="78" height="40" rx="14" fill="#E0F2FE"/>
  <path d="M679 104V174" stroke="#0EA5A4" stroke-width="12" stroke-linecap="round"/>
  <path d="M644 139H714" stroke="#0EA5A4" stroke-width="12" stroke-linecap="round"/>
  <rect x="92" y="224" width="210" height="10" rx="5" fill="#D6F5F1"/>
  <rect x="334" y="224" width="182" height="10" rx="5" fill="#D6F5F1"/>
  <rect x="548" y="224" width="144" height="10" rx="5" fill="#D6F5F1"/>
  <defs>
    <linearGradient id="paint0_linear" x1="38" y1="24" x2="851" y2="253" gradientUnits="userSpaceOnUse">
      <stop stop-color="#F0FDFA"/>
      <stop offset="1" stop-color="#ECFEFF"/>
    </linearGradient>
  </defs>
</svg>
